<svg width="600" height="200" viewBox="0 0 600 200" xmlns="http://www.w3.org/2000/svg">
  <defs>
    <radialGradient id="sGlowLight" cx="50%" cy="50%" r="50%">
      <stop offset="0%" stop-color="#DB9200" stop-opacity="0.12"/>
      <stop offset="100%" stop-color="#DB9200" stop-opacity="0"/>
    </radialGradient>
  </defs>

  <rect x="0" y="0" width="600" height="200" rx="12" fill="#FAFAF7"/>

  <!-- Top-right corner mark -->
  <line x1="445" y1="52" x2="437" y2="52" stroke="#DB9200" stroke-width="1" opacity="0.7"/>
  <line x1="445" y1="52" x2="445" y2="60" stroke="#DB9200" stroke-width="1" opacity="0.7"/>

  <!-- Bottom-left corner mark -->
  <line x1="225" y1="160" x2="233" y2="160" stroke="#DB9200" stroke-width="1" opacity="0.7"/>
  <line x1="225" y1="160" x2="225" y2="152" stroke="#DB9200" stroke-width="1" opacity="0.7"/>

  <!-- Soft glow behind S -->
  <circle cx="275" cy="100" r="70" fill="url(#sGlowLight)"/>

  <!-- S mark -->
  <g transform="translate(235, 55)">
    <path d="M 80 16 Q 80 5 64 5 L 20 5 Q 4 5 4 20 Q 4 34 20 38 L 60 47 Q 80 52 80 70 Q 80 85 64 85 L 20 85 Q 4 85 4 74"
          fill="none" stroke="#DB9200" stroke-width="9" stroke-linecap="round"/>
    <circle cx="80" cy="16" r="5" fill="#DB9200"/>
    <circle cx="4" cy="20" r="5" fill="#DB9200"/>
    <circle cx="80" cy="70" r="5" fill="#DB9200"/>
    <circle cx="4" cy="74" r="5" fill="#DB9200"/>
  </g>

  <line x1="327" y1="68" x2="435" y2="68" stroke="#DB9200" stroke-width="1"/>
  <text x="381" y="115" font-family="Arial, Helvetica, sans-serif" font-size="36" font-weight="500" fill="#0F1B2D" text-anchor="middle">oftara</text>
  <line x1="327" y1="128" x2="435" y2="128" stroke="#DB9200" stroke-width="1"/>
  <text x="381" y="148" font-family="Arial, Helvetica, sans-serif" font-size="11" font-weight="400" fill="#DB9200" letter-spacing="10" text-anchor="middle">TECH</text>
</svg>
